# xmcd
#
# Track frame offsets:
#	150
#	19577
#	37370
#	54130
#	74050
#	91775
#	117970
#	138517
#	156067
#	171890
#	193759
#	213042
#
# Disc length: 3041 seconds
#
# Revision: 6
# Processed by: cddbd v1.5.2PL0 Copyright (c) Steve Scherf et al.
# Submitted via: EasyCDDAExtractor 15.3.0.1
#
DISCID=a40bdf0c
DTITLE=Celia Cruz - Siempre Vivire
DYEAR=2000
DGENRE=Latin
TTITLE0=Celia's Oye Como Va (Oye Como Va)
TTITLE1=La Sopa
TTITLE2=Dos Dias En La Vida
TTITLE3=Contrapunto Musical
TTITLE4=La Pachanga
TTITLE5=Por Si Acaso No Regreso
TTITLE6=Yo Vivire (I Will Survive)
TTITLE7=La Medicina Cubana
TTITLE8=Quitate De Ahi
TTITLE9=La Llave
TTITLE10=Uno
TTITLE11=Tu Voz (Bolero) (A Duo Con Vicente Fernandez)
EXTD=YEAR: 2000
EXTT0=
EXTT1=
EXTT2=
EXTT3=
EXTT4=
EXTT5=
EXTT6=
EXTT7=
EXTT8=
EXTT9=
EXTT10=
EXTT11=
PLAYORDER=
